<?xml version="1.0" standalone="no"?><!DOCTYPE svg PUBLIC "-//W3C//DTD SVG 1.1//EN" "http://www.w3.org/Graphics/SVG/1.1/DTD/svg11.dtd"><svg t="1627302280563" class="icon" viewBox="0 0 1048 1024" version="1.1" xmlns="http://www.w3.org/2000/svg" p-id="1380" xmlns:xlink="http://www.w3.org/1999/xlink" width="204.6875" height="200"><defs><style type="text/css">@font-face { font-family: feedback-iconfont; src: url("//at.alicdn.com/t/font_1031158_1uhr8ri0pk5.eot?#iefix") format("embedded-opentype"), url("//at.alicdn.com/t/font_1031158_1uhr8ri0pk5.woff2") format("woff2"), url("//at.alicdn.com/t/font_1031158_1uhr8ri0pk5.woff") format("woff"), url("//at.alicdn.com/t/font_1031158_1uhr8ri0pk5.ttf") format("truetype"), url("//at.alicdn.com/t/font_1031158_1uhr8ri0pk5.svg#iconfont") format("svg"); }
</style></defs><path d="M1009.37559 308.860541l-279.669985-271.075961a136.280853 136.280853 0 0 0-186.679716-1.544011L8.27357 534.460996a25.898606 25.898606 0 0 0-8.215305 20.043015v339.420313a129.900882 129.900882 0 0 0 129.75522 129.959147h351.189758a26.044267 26.044267 0 0 0 18.586401-7.807454l512.11653-523.390725a129.667824 129.667824 0 0 0-2.330584-183.824751zM279.932176 874.318293a116.529161 116.529161 0 1 1 116.529161-116.529161 116.529161 116.529161 0 0 1-116.529161 116.529161z" p-id="1381"></path></svg>